<?xml version="1.0" encoding="UTF-8"?>
<svg id="Capa_1" xmlns="http://www.w3.org/2000/svg" version="1.1" viewBox="0 0 1000 1000">
  <!-- Generator: Adobe Illustrator 29.1.0, SVG Export Plug-In . SVG Version: 2.1.0 Build 142)  -->
  <g>
    <path d="M381.2,462h-35v82.6h9.2v-30.6h25.7c16.5,0,25.6-9.3,25.6-26.2s-9.1-25.8-25.6-25.8ZM381.5,505.4h-26.1v-34.4h27.6c8.8,0,14,4.5,14,12.1v8.8c0,8.4-5.8,13.4-15.6,13.4Z"/>
    <path d="M453.9,516.3c0,13-6.9,21.3-17.7,21.3s-12.7-5-12.7-15.2v-36.9h-9v37.7c0,14.1,7.4,22.6,19.9,22.6s16-4.1,19.8-10.5l1,9.4h7.7v-59.2h-9v30.9Z"/>
    <path d="M518.1,526.5c-2,7-8.4,11.3-16.8,11.3s-18.5-7.1-18.5-18v-2.3h43.5v-.9c.3-1.6.5-3.8.5-5.7,0-16.4-9.9-26.6-25.9-26.6s-27.3,11.7-27.3,30.4,10.5,31,27.3,31,23.7-7.6,26.1-18.8l.3-1.2h-9l-.2.7ZM501,492.4c10.1,0,16.9,6.3,16.9,15.8v1.5h-35v-.8c0-9.9,7.3-16.6,18.1-16.6Z"/>
    <path d="M566,484.4c-8.2,0-15.3,3.9-19.3,10.5l-.9-9.4h-8v59.2h9v-30.9c0-12.4,7.1-20.8,17.6-20.8s13.6,5.3,13.6,15.8v35.8h9v-36.5c0-14.5-8.2-23.8-20.9-23.8Z"/>
    <path d="M611.4,493.5h12.3v-8h-12.3v-19.4h-8.9v19.4h-10.5v8h10.5v43.9c0,4.7,2.8,7.3,7.8,7.3h13.5v-8.1h-12.4v-43.1Z"/>
    <path d="M671.4,526.5c-2,7-8.4,11.3-16.8,11.3s-18.5-7.1-18.5-18v-2.3h43.5v-.9c.3-1.6.5-3.8.5-5.7,0-16.4-9.9-26.6-25.9-26.6s-27.3,11.7-27.3,30.4,10.5,31,27.3,31,23.7-7.6,26.1-18.8l.3-1.2h-9l-.2.7ZM654.2,492.4c10.1,0,16.9,6.3,16.9,15.8v1.5h-35v-.8c0-9.9,7.3-16.6,18.1-16.6Z"/>
    <path d="M747.3,461c-24.3,0-38.2,15.4-38.2,42.4s13.9,42.4,38.2,42.4,38.2-15.4,38.2-42.4-13.9-42.4-38.2-42.4ZM747.3,537c-17.9,0-28.5-10.5-28.5-28.1v-11.3c0-17.4,10.7-27.8,28.5-27.8s28.5,10.4,28.5,27.8v11.3c0,17.6-10.7,28.1-28.5,28.1Z"/>
    <path d="M834,499.3l-15.8-3.5c-7.3-1.6-14.7-4.3-14.7-12.9s7.2-13.8,18.8-13.8,19.3,5.7,19.9,16.1v1h9.3v-1c-.4-14.9-11.6-24.1-29.3-24.1s-28.2,8.8-28.2,22.5,15.2,19.8,22.5,21.5l15.1,3.5c3.9.9,12.9,2.9,12.9,13.5s-7.8,15.8-20.8,15.8c-19.2,0-22.4-11.8-22.5-18.8v-1h-9.4v1c0,7.3,2.4,13.6,7.1,18.3,5.6,5.6,14.1,8.6,24.6,8.6,19,0,30.8-9.4,30.8-24.5s-6.9-19.1-20-22Z"/>
  </g>
  <path d="M290.3,460.7c-9.7-15.1-25.4-26.3-42.9-30.6-23.2-5.7-47.8.6-69.3,10.9-9.1,4.4-18.1,9.7-24.1,17.8-7.4,10.1-9.3,23.6-7.3,36,1.6,10,5.3,20,10.2,28.8,2.9,5.3,18.4,38.7,64.3,47.6,24.4,4.7,50.5-8.4,65.6-28.2,6.9-9,11.6-19.5,13.7-30.6,3.3-17.7-.4-36.6-10.2-51.7ZM282.1,503.3c-7.6,17.4-18.7,33.2-32.5,46.2-10,9.4-21.1,17.2-30.3,16.4-9.2-.8-18.8-10.5-26.9-21.5-11.3-15.3-19.4-32.8-23.8-51.3-3.2-13.4-4.3-26.9,1-34.4,5.4-7.7,19-11.2,33-12.6,18.3-1.9,36.9-.2,54.6,4.9,13.5,3.9,26.2,9.8,30.2,18.3,3.9,8.4.3,21.5-5.2,34.1Z"/>
</svg>